HIERARCHY
ROOT Root
{
	OFFSET 0.00000 0.00000 0.00000
	CHANNELS 6 Xposition Yposition Zposition Zrotation Xrotation Yrotation
	JOINT Hip
	{
		OFFSET 0 0 0	
		CHANNELS 3 Zrotation Xrotation Yrotation
		JOINT Tummy
		{
			OFFSET 0 0.04 0	
			CHANNELS 3 Zrotation Xrotation Yrotation
			JOINT ChestBottom
			{
				OFFSET 0 0.194 0	
				CHANNELS 3 Zrotation Xrotation Yrotation
				JOINT ChestTop
				{
					OFFSET 0 0.166 0	
					CHANNELS 3 Zrotation Xrotation Yrotation
					JOINT LeftCollar
					{
						OFFSET 0 0.1 0	
						CHANNELS 3 Zrotation Xrotation Yrotation
						JOINT LeftUpperArm
						{
							OFFSET 0.156 -0.02 0.03	
							CHANNELS 3 Zrotation Xrotation Yrotation
							JOINT LeftForeArm
							{
								OFFSET 0.035 -0.27 -0.01	
								CHANNELS 3 Zrotation Xrotation Yrotation
								JOINT LeftHand
								{
									OFFSET 0.01 -0.27 0.01	
									CHANNELS 3 Zrotation Xrotation Yrotation
									End Site
									{
										OFFSET 0 -0.15 0
									}
								}
							}
						}
					}
					JOINT RightCollar
					{
						OFFSET 0 0.1 0	
						CHANNELS 3 Zrotation Xrotation Yrotation
						JOINT RightUpperArm
						{
							OFFSET -0.156 -0.02 0.03	
							CHANNELS 3 Zrotation Xrotation Yrotation
							JOINT RightForeArm
							{
								OFFSET -0.035 -0.27 -0.01	
								CHANNELS 3 Zrotation Xrotation Yrotation
								JOINT RightHand
								{
									OFFSET -0.01 -0.27 0.01	
									CHANNELS 3 Zrotation Xrotation Yrotation
									End Site
									{
										OFFSET 0 -0.15 0
									}
								}
							}
						}
					}
					JOINT Neck
					{
						OFFSET 0 0.1 0	
						CHANNELS 3 Zrotation Xrotation Yrotation
						JOINT Head
						{
							OFFSET 0 0.127 0.03	
							CHANNELS 3 Zrotation Xrotation Yrotation
							End Site
							{
								OFFSET 0 0.127 0.03
							}
						}
					}
				}
			}
		}
	}
	JOINT LeftHip
	{
		OFFSET 0 0 0	
		CHANNELS 3 Zrotation Xrotation Yrotation
		JOINT LeftThigh
		{
			OFFSET 0.088 -0.06 0	
			CHANNELS 3 Zrotation Xrotation Yrotation
			JOINT LeftLowerLeg
			{
				OFFSET 0 -0.39 0.02	
				CHANNELS 3 Zrotation Xrotation Yrotation
				JOINT LeftFootTop
				{
					OFFSET 0 -0.43 -0.02	
					CHANNELS 3 Zrotation Xrotation Yrotation
					JOINT LeftFootFront
					{
						OFFSET 0 -0.07 0.085	
						CHANNELS 3 Zrotation Xrotation Yrotation
						End Site
						{
							OFFSET 0 -0.005 0.09
						}
					}
				}
				JOINT LeftHeel
				{
					OFFSET 0 -0.43 -0.02	
					CHANNELS 3 Zrotation Xrotation Yrotation
					End Site
					{
						OFFSET 0 -0.075 -0.05
					}
				}
			}
		}
	}
	JOINT RightHip
	{
		OFFSET 0 0 0	
		CHANNELS 3 Zrotation Xrotation Yrotation
		JOINT RightThigh
		{
			OFFSET -0.088 -0.06 0	
			CHANNELS 3 Zrotation Xrotation Yrotation
			JOINT RightLowerLeg
			{
				OFFSET 0 -0.39 0.02	
				CHANNELS 3 Zrotation Xrotation Yrotation
				JOINT RightFootTop
				{
					OFFSET 0 -0.43 -0.02	
					CHANNELS 3 Zrotation Xrotation Yrotation
					JOINT RightFootFront
					{
						OFFSET 0 -0.07 0.085	
						CHANNELS 3 Zrotation Xrotation Yrotation
						End Site
						{
							OFFSET 0 -0.005 0.09
						}
					}
				}
				JOINT RightHeel
				{
					OFFSET 0 -0.43 -0.02	
					CHANNELS 3 Zrotation Xrotation Yrotation
					End Site
					{
						OFFSET 0 -0.075 -0.05
					}
				}
			}
		}
	}
}
MOTION
Frames: 21
Frame Time: 0.05
0 0.955 0 -0 0 -0 -0 0 -0 -0 0 -0 -5.6549 31.328 -7.9422 -0 0 -0 -0 0 -0 150.69 -75.576 161.54 -104.6 -36.313 -128.07 -0 0 -0 -0 0 -0 -25.557 -53.201 51.835 125.27 -43.567 34.706 -0 0 -0 16.441 -26.039 39.086 16.441 -26.039 39.086 -0 0 -0 -0 0 -0 -0 0 -0 -0 0 -0 -0 0 -0 -0 0 -0 -0 0 -0 -0 0 -0 -0 0 -0 -0 0 -0 -0 0 -0 -0 0 -0 
0 0.955 0 -0 0 -0 -0 0 -0 -0 0 -0 -5.6766 31.305 -7.9547 -0 0 -0 -0 0 -0 150.59 -75.568 161.46 -104.62 -36.325 -128.15 -0 0 -0 -0 0 -0 -25.516 -53.219 51.892 125.28 -43.579 34.756 -0 0 -0 16.473 -26.024 39.122 16.473 -26.024 39.122 -0 0 -0 -0 0 -0 -0 0 -0 -0 0 -0 -0 0 -0 -0 0 -0 -0 0 -0 -0 0 -0 -0 0 -0 -0 0 -0 -0 0 -0 -0 0 -0 
0 0.955 0 -0 0 -0 -0 0 -0 -0 0 -0 -5.6908 31.27 -7.9797 -0 0 -0 -0 0 -0 150.42 -75.571 161.28 -104.64 -36.326 -128.2 -0 0 -0 -0 0 -0 -25.41 -53.208 52.003 125.21 -43.591 34.786 -0 0 -0 16.479 -25.988 39.14 16.479 -25.988 39.14 -0 0 -0 -0 0 -0 -0 0 -0 -0 0 -0 -0 0 -0 -0 0 -0 -0 0 -0 -0 0 -0 -0 0 -0 -0 0 -0 -0 0 -0 -0 0 -0 
0 0.955 0 -0 0 -0 -0 0 -0 -0 0 -0 -5.7083 31.296 -7.9866 -0 0 -0 -0 0 -0 150.39 -75.558 161.23 -104.66 -36.348 -128.25 -0 0 -0 -0 0 -0 -25.336 -53.256 52.054 125.15 -43.613 34.797 -0 0 -0 16.49 -25.996 39.17 16.49 -25.996 39.17 -0 0 -0 -0 0 -0 -0 0 -0 -0 0 -0 -0 0 -0 -0 0 -0 -0 0 -0 -0 0 -0 -0 0 -0 -0 0 -0 -0 0 -0 -0 0 -0 
0 0.955 0 -0 0 -0 -0 0 -0 -0 0 -0 -5.7154 31.296 -7.9779 -0 0 -0 -0 0 -0 150.43 -75.561 161.31 -104.66 -36.338 -128.25 -0 0 -0 -0 0 -0 -25.296 -53.257 52.079 125.11 -43.623 34.822 -0 0 -0 16.503 -26.003 39.17 16.503 -26.003 39.17 -0 0 -0 -0 0 -0 -0 0 -0 -0 0 -0 -0 0 -0 -0 0 -0 -0 0 -0 -0 0 -0 -0 0 -0 -0 0 -0 -0 0 -0 -0 0 -0 
0 0.955 0 -0 0 -0 -0 0 -0 -0 0 -0 -5.7137 31.32 -8.0063 -0 0 -0 -0 0 -0 150.38 -75.514 161.25 -104.65 -36.336 -128.26 -0 0 -0 -0 0 -0 -25.306 -53.267 52.118 125.13 -43.637 34.952 -0 0 -0 16.509 -26.015 39.199 16.509 -26.015 39.199 -0 0 -0 -0 0 -0 -0 0 -0 -0 0 -0 -0 0 -0 -0 0 -0 -0 0 -0 -0 0 -0 -0 0 -0 -0 0 -0 -0 0 -0 -0 0 -0 
0 0.955 0 -0 0 -0 -0 0 -0 -0 0 -0 -5.7607 31.329 -7.9507 -0 0 -0 -0 0 -0 150.56 -75.507 161.39 -104.66 -36.344 -128.31 -0 0 -0 -0 0 -0 -25.299 -53.279 52.09 125.11 -43.663 34.977 -0 0 -0 16.518 -26.027 39.201 16.518 -26.027 39.201 -0 0 -0 -0 0 -0 -0 0 -0 -0 0 -0 -0 0 -0 -0 0 -0 -0 0 -0 -0 0 -0 -0 0 -0 -0 0 -0 -0 0 -0 -0 0 -0 
0 0.955 0 -0 0 -0 -0 0 -0 -0 0 -0 -5.7709 31.333 -7.9383 -0 0 -0 -0 0 -0 150.66 -75.478 161.51 -104.64 -36.322 -128.3 -0 0 -0 -0 0 -0 -25.308 -53.281 52.09 125.1 -43.681 34.998 -0 0 -0 16.535 -26.028 39.206 16.535 -26.028 39.206 -0 0 -0 -0 0 -0 -0 0 -0 -0 0 -0 -0 0 -0 -0 0 -0 -0 0 -0 -0 0 -0 -0 0 -0 -0 0 -0 -0 0 -0 -0 0 -0 
0 0.955 0 -0 0 -0 -0 0 -0 -0 0 -0 -5.7787 31.322 -7.9393 -0 0 -0 -0 0 -0 150.68 -75.461 161.53 -104.62 -36.343 -128.3 -0 0 -0 -0 0 -0 -25.198 -53.306 52.144 124.99 -43.693 34.915 -0 0 -0 16.534 -26.031 39.205 16.534 -26.031 39.205 -0 0 -0 -0 0 -0 -0 0 -0 -0 0 -0 -0 0 -0 -0 0 -0 -0 0 -0 -0 0 -0 -0 0 -0 -0 0 -0 -0 0 -0 -0 0 -0 
0 0.955 0 -0 0 -0 -0 0 -0 -0 0 -0 -5.7914 31.352 -7.9123 -0 0 -0 -0 0 -0 150.78 -75.444 161.61 -104.65 -36.391 -128.38 -0 0 -0 -0 0 -0 -25.19 -53.355 52.101 124.93 -43.697 34.864 -0 0 -0 16.496 -26.081 39.195 16.496 -26.081 39.195 -0 0 -0 -0 0 -0 -0 0 -0 -0 0 -0 -0 0 -0 -0 0 -0 -0 0 -0 -0 0 -0 -0 0 -0 -0 0 -0 -0 0 -0 -0 0 -0 
0 0.955 0 -0 0 -0 -0 0 -0 -0 0 -0 -5.814 31.331 -7.8759 -0 0 -0 -0 0 -0 150.85 -75.458 161.7 -104.68 -36.404 -128.48 -0 0 -0 -0 0 -0 -25.2 -53.345 52.08 125 -43.694 34.921 -0 0 -0 16.475 -26.095 39.185 16.475 -26.095 39.185 -0 0 -0 -0 0 -0 -0 0 -0 -0 0 -0 -0 0 -0 -0 0 -0 -0 0 -0 -0 0 -0 -0 0 -0 -0 0 -0 -0 0 -0 -0 0 -0 
0 0.955 0 -0 0 -0 -0 0 -0 -0 0 -0 -5.8458 31.304 -7.8299 -0 0 -0 -0 0 -0 151.01 -75.484 161.87 -104.72 -36.395 -128.58 -0 0 -0 -0 0 -0 -25.205 -53.308 52.056 125.07 -43.686 34.98 -0 0 -0 16.457 -26.085 39.184 16.457 -26.085 39.184 -0 0 -0 -0 0 -0 -0 0 -0 -0 0 -0 -0 0 -0 -0 0 -0 -0 0 -0 -0 0 -0 -0 0 -0 -0 0 -0 -0 0 -0 -0 0 -0 
0 0.955 0 -0 0 -0 -0 0 -0 -0 0 -0 -5.8764 31.271 -7.8247 -0 0 -0 -0 0 -0 151.09 -75.481 161.98 -104.75 -36.383 -128.7 -0 0 -0 -0 0 -0 -25.195 -53.316 52.057 125.1 -43.684 34.983 -0 0 -0 16.457 -26.058 39.204 16.457 -26.058 39.204 -0 0 -0 -0 0 -0 -0 0 -0 -0 0 -0 -0 0 -0 -0 0 -0 -0 0 -0 -0 0 -0 -0 0 -0 -0 0 -0 -0 0 -0 -0 0 -0 
0 0.955 0 -0 0 -0 -0 0 -0 -0 0 -0 -5.8968 31.228 -7.8413 -0 0 -0 -0 0 -0 151.08 -75.485 161.98 -104.81 -36.418 -128.87 -0 0 -0 -0 0 -0 -25.173 -53.281 52.119 125.2 -43.682 35.081 -0 0 -0 16.446 -26.037 39.248 16.446 -26.037 39.248 -0 0 -0 -0 0 -0 -0 0 -0 -0 0 -0 -0 0 -0 -0 0 -0 -0 0 -0 -0 0 -0 -0 0 -0 -0 0 -0 -0 0 -0 -0 0 -0 
0 0.955 0 -0 0 -0 -0 0 -0 -0 0 -0 -5.9045 31.247 -7.8549 -0 0 -0 -0 0 -0 151.24 -75.434 162.16 -104.84 -36.428 -129 -0 0 -0 -0 0 -0 -25.149 -53.359 52.1 125.21 -43.66 34.993 -0 0 -0 16.429 -26.054 39.29 16.429 -26.054 39.29 -0 0 -0 -0 0 -0 -0 0 -0 -0 0 -0 -0 0 -0 -0 0 -0 -0 0 -0 -0 0 -0 -0 0 -0 -0 0 -0 -0 0 -0 -0 0 -0 
0 0.955 0 -0 0 -0 -0 0 -0 -0 0 -0 -5.9153 31.271 -7.847 -0 0 -0 -0 0 -0 151.44 -75.402 162.4 -104.85 -36.422 -129.05 -0 0 -0 -0 0 -0 -25.095 -53.449 52.087 125.1 -43.678 34.868 -0 0 -0 16.407 -26.088 39.311 16.407 -26.088 39.311 -0 0 -0 -0 0 -0 -0 0 -0 -0 0 -0 -0 0 -0 -0 0 -0 -0 0 -0 -0 0 -0 -0 0 -0 -0 0 -0 -0 0 -0 -0 0 -0 
0 0.955 0 -0 0 -0 -0 0 -0 -0 0 -0 -5.9587 31.282 -7.8429 -0 0 -0 -0 0 -0 151.58 -75.362 162.56 -104.86 -36.397 -129.09 -0 0 -0 -0 0 -0 -25.036 -53.538 52.105 125.07 -43.71 34.797 -0 0 -0 16.416 -26.116 39.333 16.416 -26.116 39.333 -0 0 -0 -0 0 -0 -0 0 -0 -0 0 -0 -0 0 -0 -0 0 -0 -0 0 -0 -0 0 -0 -0 0 -0 -0 0 -0 -0 0 -0 -0 0 -0 
0 0.955 0 -0 0 -0 -0 0 -0 -0 0 -0 -5.9679 31.274 -7.8526 -0 0 -0 -0 0 -0 151.69 -75.328 162.71 -104.89 -36.385 -129.15 -0 0 -0 -0 0 -0 -25.039 -53.573 52.087 125.09 -43.691 34.723 -0 0 -0 16.416 -26.123 39.375 16.416 -26.123 39.375 -0 0 -0 -0 0 -0 -0 0 -0 -0 0 -0 -0 0 -0 -0 0 -0 -0 0 -0 -0 0 -0 -0 0 -0 -0 0 -0 -0 0 -0 -0 0 -0 
0 0.955 0 -0 0 -0 -0 0 -0 -0 0 -0 -5.9859 31.355 -7.8357 -0 0 -0 -0 0 -0 151.98 -75.244 163.03 -104.94 -36.381 -129.25 -0 0 -0 -0 0 -0 -25.09 -53.703 51.973 125.12 -43.678 34.635 -0 0 -0 16.397 -26.177 39.419 16.397 -26.177 39.419 -0 0 -0 -0 0 -0 -0 0 -0 -0 0 -0 -0 0 -0 -0 0 -0 -0 0 -0 -0 0 -0 -0 0 -0 -0 0 -0 -0 0 -0 -0 0 -0 
0 0.955 0 -0 0 -0 -0 0 -0 -0 0 -0 -5.9998 31.34 -7.8566 -0 0 -0 -0 0 -0 151.98 -75.235 163.05 -104.99 -36.383 -129.37 -0 0 -0 -0 0 -0 -24.998 -53.737 52.046 125.07 -43.697 34.6 -0 0 -0 16.385 -26.172 39.447 16.385 -26.172 39.447 -0 0 -0 -0 0 -0 -0 0 -0 -0 0 -0 -0 0 -0 -0 0 -0 -0 0 -0 -0 0 -0 -0 0 -0 -0 0 -0 -0 0 -0 -0 0 -0 
0 0.955 0 -0 0 -0 -0 0 -0 -0 0 -0 -6.0221 31.343 -7.8646 -0 0 -0 -0 0 -0 152.06 -75.201 163.15 -105.01 -36.373 -129.44 -0 0 -0 -0 0 -0 -24.952 -53.798 52.057 125.06 -43.703 34.566 -0 0 -0 16.38 -26.172 39.478 16.38 -26.172 39.478 -0 0 -0 -0 0 -0 -0 0 -0 -0 0 -0 -0 0 -0 -0 0 -0 -0 0 -0 -0 0 -0 -0 0 -0 -0 0 -0 -0 0 -0 -0 0 -0 
